<svg id="Capa_1" data-name="Capa 1" xmlns="http://www.w3.org/2000/svg" viewBox="0 0 123 123"><defs><style>.cls-1{fill:#f4c366;}</style></defs><title>icono-prudencia</title><path class="cls-1" d="M79,68.39a23.87,23.87,0,0,0,.9-9.33c-.22-4.2-.58-8.41-1-12.61A4.66,4.66,0,0,0,74.31,42a4.47,4.47,0,0,0-2.41.7c.84-3-.28-4.83-4.28-6.26a.05.05,0,0,1,0,0c.08-2.14-.44-3.46-2.35-4.55s-3.84-1.25-5.56,1c0,0-.47.59-.47.57A3.5,3.5,0,0,0,57.14,31a4.13,4.13,0,0,0-3.72,0,5.34,5.34,0,0,0-1.07.39,3.47,3.47,0,0,0-2,2.4,6.84,6.84,0,0,1-.5-.55c-1.81-2.15-3.69-1.94-5.59-.75S42,35,42.12,37.12a.05.05,0,0,1,0,.05c-3.64,1.46-4.82,3.2-4.22,5.76a4.55,4.55,0,0,0-2.26-.51A4.67,4.67,0,0,0,31.2,47.1c-.22,4.21-.41,8.43-.46,12.64A23.78,23.78,0,0,0,32,69l-4.14,6.9,20,12,4.55-7.59a13.23,13.23,0,0,0,3-1.23A13.26,13.26,0,0,0,59,80.5l4.84,7.41L83.36,75.13ZM65.48,40.59c.94-1.56,1.91-2,3.14-1.37s1.65,1.66.75,3.29c-.75,1.37-1.53,2.72-2.31,4.07l-2.7-4.12C64.73,41.83,65.11,41.21,65.48,40.59Zm3.92,7.33c0,.52-.08,1.09-.13,1.75a.05.05,0,0,1-.09,0c-.27-.38-.48-.65-.66-.9A3.34,3.34,0,0,1,69.4,47.92Zm-8.64-12.8c.84-1.4,1.85-1.86,3-1.4,1.49.6,1.86,2,.93,3.57l-1.76,2.92-2.71-4.13C60.37,35.76,60.56,35.44,60.76,35.12ZM52.85,77.68a12.49,12.49,0,0,1-1.43.41l-1.29,2.15-.31.52-3,5L30.27,75.85l2.79-4.65.39-.65,1-1.67A12.08,12.08,0,0,1,34,67.7a12.22,12.22,0,0,1-.37-1.35,14.09,14.09,0,0,1-.31-2.78c0-5.42.1-10.84.24-16.26a2.37,2.37,0,0,1,2.13-2.51,2.25,2.25,0,0,1,2.26,1.48A3.45,3.45,0,0,0,37,47a5.73,5.73,0,0,0-.51,6.84q5.9,9.36,12,18.59a22.45,22.45,0,0,0,2.7,3.36,20.62,20.62,0,0,0,1.93,1.74Zm8.76,3.13-.33-.5L59.9,78.2a11.21,11.21,0,0,1-1.44-.35,10.88,10.88,0,0,1-1.62-.63A15.3,15.3,0,0,1,51,72c-2.14-3.09-4.13-6.28-6.2-9.43-2.16-3.31-4.33-6.6-6.47-9.92a3.61,3.61,0,0,1-.84-2.4,2.08,2.08,0,0,1,1-1.52,2.51,2.51,0,0,1,2.14,0,4.7,4.7,0,0,1,1.57,1.7c1,1.51,2,3,3,4.56q.72,1.11,1.47,2.22c.53.78,1.54,3,2.74,2.1s-.34-2.53-.81-3.23-1-1.48-1.45-2.23c-2.22-3.48-4.49-6.94-6.62-10.47-1-1.6-.65-2.63.62-3.32s2.19-.28,3.19,1.24l7.79,11.9c.36.55.58,1,1.27,1.24A.85.85,0,0,0,54.64,54a1.93,1.93,0,0,0-.39-2q-4.57-7-9.16-14c-1-1.53-.67-2.94.79-3.61,1.09-.49,2.12-.08,3,1.29q4.68,7.09,9.31,14.22c.51.78,1.12,1.43,2,.8s.37-1.38-.09-2.08q-3.59-5.48-7.17-11a6.44,6.44,0,0,1-.8-1.54,2.19,2.19,0,0,1,1.74-2.75c1.31-.23,2,.55,2.55,1.48C60.51,41,64.57,47.25,68.68,53.43a2.69,2.69,0,0,0,1.77,1.23c1.09,0,1-1.16,1-2,.17-2,.25-4,.46-6a2.31,2.31,0,1,1,4.62,0c.35,5.41.72,10.82.87,16.24a13.49,13.49,0,0,1-.2,2.79,12.78,12.78,0,0,1-.32,1.36,12.15,12.15,0,0,1-.42,1.2L77.57,70l.41.63,3,4.54L64.81,85.71Z"/><path class="cls-1" d="M66.08,55.92a5.06,5.06,0,0,0-4.32,2.53,5.06,5.06,0,0,0-4.32-2.53,5.16,5.16,0,0,0-4.81,3.59,5.77,5.77,0,0,0,0,3.64c0,.07,0,.12.07.18l.79-.38-.79.38.79-.38-.79.38,0,.08a5.5,5.5,0,0,0,.84,1.49,5.89,5.89,0,0,0,.54.58l7.68,8.13,7.95-8.42a5.59,5.59,0,0,0,1.19-2,5.72,5.72,0,0,0,.3-1.84A5.3,5.3,0,0,0,66.08,55.92Zm3.17,6.72A3.7,3.7,0,0,1,68.42,64l-6.65,7-6.42-6.81-.05,0a5,5,0,0,1-.39-.41,3.9,3.9,0,0,1-.56-1l-.09-.21a3.84,3.84,0,0,1-.19-1.22,4,4,0,0,1,.21-1.28,3.27,3.27,0,0,1,6.22-.26,1.37,1.37,0,0,0,1.26.83A1.39,1.39,0,0,0,63,59.82a3.37,3.37,0,0,1,3-2.14,3.55,3.55,0,0,1,3.38,3.68A4,4,0,0,1,69.25,62.64Z"/></svg>