<svg id="Capa_1" data-name="Capa 1" xmlns="http://www.w3.org/2000/svg" viewBox="0 0 123 123"><defs><style>.cls-1{fill:#f4c366;}</style></defs><title>icono-confianza</title><path class="cls-1" d="M42.57,66.89h0A11.2,11.2,0,0,0,53.76,55.7,11.2,11.2,0,0,0,42.57,44.51,11.2,11.2,0,0,0,31.38,55.7,11.2,11.2,0,0,0,42.57,66.89Zm-5.82-17a8.23,8.23,0,1,1,5.82,14h0a8.23,8.23,0,0,1-5.82-14Z"/><path class="cls-1" d="M69.45,66.89h0A11.2,11.2,0,0,0,80.64,55.7,11.2,11.2,0,0,0,69.45,44.51,11.2,11.2,0,0,0,58.26,55.7,11.2,11.2,0,0,0,69.45,66.89Zm-5.82-17a8.23,8.23,0,1,1,5.82,14h0a8.23,8.23,0,0,1-5.82-14Z"/><path class="cls-1" d="M83.63,82.59c0-.4.25-9.85-5.69-15.29A1.48,1.48,0,0,0,76,67.21s-4.22,3.17-9,2a4.25,4.25,0,0,0-3.24-3.62,5.8,5.8,0,0,0-6.45,2.8.69.69,0,0,1-.58.35.73.73,0,0,1-.61-.34,5.88,5.88,0,0,0-5.13-3,5.28,5.28,0,0,0-1.38.18,4.25,4.25,0,0,0-3.09,3.1,9.69,9.69,0,0,1-10.15-1.39,1.49,1.49,0,0,0-1.91,0c-.24.22-6,5.3-6.11,15.27a1.49,1.49,0,0,0,.43,1.06,1.46,1.46,0,0,0,1.05.45h25.4a1.54,1.54,0,0,0,.74-.2,1.48,1.48,0,0,0,.74.21h25.4A1.49,1.49,0,0,0,83.63,82.59ZM31.42,81.06a18.71,18.71,0,0,1,4.22-10.73,12.61,12.61,0,0,0,11.11,1.38c1.06,3.11,4.45,6.5,6.94,8.67,0,.24,0,.47.05.68ZM48.17,69.88A2.5,2.5,0,0,1,50.1,67.2a3.54,3.54,0,0,1,.93-.12,4.15,4.15,0,0,1,3.61,2.14,2.43,2.43,0,0,0,4.24,0,4,4,0,0,1,4.48-1.94,2.48,2.48,0,0,1,2,2.64c0,2.85-4.23,7.38-8.59,10.77C53.33,78,48.17,73.07,48.17,69.88ZM59,81.06c2.4-2,6.24-5.59,7.58-9a14.06,14.06,0,0,0,10.13-1.8c3,3.41,3.72,8.35,3.88,10.76Z"/></svg>