<svg id="Capa_1" data-name="Capa 1" xmlns="http://www.w3.org/2000/svg" viewBox="0 0 123 123"><defs><style>.cls-1{fill:#f4c366;}</style></defs><title>icono-templanza</title><path class="cls-1" d="M59,44.5a3.69,3.69,0,0,0-3.45,2.43L36,49.37a3.07,3.07,0,0,0,.38,6.11l.38,0,.8-.1L31.71,72.71a.61.61,0,0,0,0,.13H27.61L27.69,74a7,7,0,0,0,7,6.47H45.28a7,7,0,0,0,7-6.47l.08-1.11H48.54l0-.13-6.06-18,12.9-1.61v30H48.62a3.68,3.68,0,0,0,0,7.36H69.44a3.68,3.68,0,1,0,0-7.36H62.71V52.23l12.51-1.56L69.5,67.61l0,.13H65.4l.09,1.12a7,7,0,0,0,7,6.47H83.07a7,7,0,0,0,7-6.47l.08-1.12H86.33a.79.79,0,0,0,0-.13L80.36,50l1.36-.17A3.07,3.07,0,1,0,81,43.77L62.08,46.12A3.71,3.71,0,0,0,59,44.5ZM50,74.91a5,5,0,0,1-4.69,3.44H34.67A5,5,0,0,1,30,74.91Zm-3.35-2.07h-13l6-17.73,1-.13ZM69.44,85a1.84,1.84,0,0,1,0,3.68H48.62a1.84,1.84,0,0,1,0-3.68H69.44ZM87.76,69.82a5,5,0,0,1-4.69,3.44H72.46a5,5,0,0,1-4.69-3.44Zm-3.34-2.08h-13l5.85-17.32,1.27-.16ZM81.19,45.59h.15a1.23,1.23,0,0,1,1,2,1.2,1.2,0,0,1-.82.46L62.71,50.37l-.92.12-.92.11V83.12H57.19V51.06l-.92.12-.92.11-18.8,2.34a1.23,1.23,0,0,1-.91-.25,1.22,1.22,0,0,1-.22-1.72,1.26,1.26,0,0,1,.82-.47l19.11-2.38.92-.11.92-.12v-.4a1.91,1.91,0,0,1,.09-.54,1.85,1.85,0,0,1,.8-1,1.82,1.82,0,0,1,1-.28,1.91,1.91,0,0,1,.54.09,1.85,1.85,0,0,1,1.3,1.69l.9-.11.93-.11Z"/></svg>