<svg id="Capa_1" data-name="Capa 1" xmlns="http://www.w3.org/2000/svg" viewBox="0 0 123 123"><defs><style>.cls-1{fill:#f4c366;}</style></defs><title>icono-responsabilidad</title><path class="cls-1" d="M64.32,39c-.25,0-.5-.06-.75-.08-1.76-.71-4.9-1.22-8.58,1.62l-.09.07-1.21,1.22c-4.55-3.09-8.16-1.19-9.18-.52L40,36.73,25.69,51l5.42,5.42a13.83,13.83,0,0,0,2.58,7.43,19.75,19.75,0,0,0,2.37,2.87c1.12,1.14,2.25,2.25,3.37,3.38-1.22,1.77-.69,3.24.58,4.57a3.73,3.73,0,0,0,4.32,1l0,0c1.28,1.92,2.47,2.85,3.74,3,.53.52,1,1,1.59,1.55a5,5,0,0,0,5.88.77A3.39,3.39,0,0,0,57,79.47c3.22,2.7,5.36,2.75,7.89-1a0,0,0,0,1,0,0,3.73,3.73,0,0,0,4.32-1c1.35-1.4,1.86-3,.36-4.88,0,0-.4-.52-.38-.51a3,3,0,0,0,2.38-1.26,3.67,3.67,0,0,0-.16-5c.58-.59,1.17-1.16,1.75-1.75a19.72,19.72,0,0,0,2.37-2.88,13.94,13.94,0,0,0,2.59-7.43l5.41-5.42L69.24,34ZM36.93,64.67a13.12,13.12,0,0,1-3.42-5.83,10.3,10.3,0,0,1-.25-1.49,10.81,10.81,0,0,1,0-1.28l-5.49-5.49L39.54,38.77l3.78,3.78.25.25v0l1.83.15.12-.29c.72-.49,3.71-2.15,7.71.89l5.29,5.32a1.41,1.41,0,0,1,.41,1,1.38,1.38,0,0,1-.42,1l-.35.35a1.41,1.41,0,0,1-2,0l-5.41-5.43-1.32.92,1.47,1.71.63.64L49.66,51a1,1,0,0,0-.29.5l-.09.1Q43.82,57,38.36,62.47A5.56,5.56,0,0,0,36.93,64.67ZM54.47,79.41A1.83,1.83,0,0,1,53,80a3.19,3.19,0,0,1-1.88-1.14l-.77-.76a11.46,11.46,0,0,0,1.92-1.34,3.34,3.34,0,0,0,1.38,1.52,4.67,4.67,0,0,0,1.16.48A1.48,1.48,0,0,1,54.47,79.41Zm7.79-.74c-.81,1-1.74,1-2.92-.06l-.55-.51a5.18,5.18,0,0,0,.74-.59l2-2c.07.08.15.15.22.22C62.88,76.87,63,77.77,62.26,78.67Zm5.65-3c-.82,1.12-2.07,1.14-3.19,0-.56-.55-1.12-1.11-1.67-1.67l2.75-2.69,1.56,1.55C68.36,73.94,68.53,74.88,67.91,75.72ZM70.2,69.1a1.89,1.89,0,0,1-2.64,1,2.11,2.11,0,0,1-.27-.18c.88-.87,1.76-1.76,2.64-2.64A1.71,1.71,0,0,1,70.2,69.1ZM81.49,47.87,76,53.36a10.81,10.81,0,0,1,0,1.28,10.3,10.3,0,0,1-.25,1.49A13.08,13.08,0,0,1,72.27,62c-2.24,2.36-4.59,4.62-6.9,6.93s-4.82,4.84-7.26,7.24a3.19,3.19,0,0,1-1.88,1.14,1.8,1.8,0,0,1-1.47-.59,2.18,2.18,0,0,1-.36-1.82,4.23,4.23,0,0,1,1.17-1.63c1.1-1.13,2.22-2.24,3.33-3.36.55-.54,1.09-1.09,1.62-1.64s2.23-1.82,1.3-2.7-2.08.75-2.6,1.27l-1.63,1.62c-2.56,2.5-5.09,5-7.71,7.46-1.18,1.1-2.11,1-2.92.07s-.62-1.81.49-2.93l8.7-8.7A2.11,2.11,0,0,0,57,63c0-.46-.12-.87-.59-.94a1.7,1.7,0,0,0-1.66.7L44.5,73c-1.12,1.11-2.37,1.09-3.19,0-.62-.84-.45-1.78.55-2.78Q47.05,65,52.27,59.82c.57-.57,1-1.2.32-1.85s-1.24-.07-1.74.44q-4,4-8,8a5.54,5.54,0,0,1-1.16.95,1.89,1.89,0,0,1-2.64-1c-.43-1.07.12-1.75.8-2.42,4.43-4.42,8.87-8.85,13.27-13.31l1.82,1.83a3.17,3.17,0,0,0,4.48,0l.35-.35a3.12,3.12,0,0,0,.93-2.24,3.18,3.18,0,0,0-.82-2.12l-4-4.07h0l-.8-.8,1.08-1.08a7.55,7.55,0,0,1,8.61-.8l1.19-1.2,3.78-3.78Z"/></svg>