<svg id="Capa_1" data-name="Capa 1" xmlns="http://www.w3.org/2000/svg" viewBox="0 0 123 123"><defs><style>.cls-1{fill:#f4c366;}</style></defs><title>icono-justicia</title><path class="cls-1" d="M88.54,73.14h0a2,2,0,0,0-1.4-.58H57a2,2,0,0,0-2,2v2.34H52.61a1,1,0,0,0-1,1v2.35H47.37a1,1,0,0,0-1,1v3.35a1,1,0,0,0,1,1H96.78a1,1,0,0,0,1-1V81.26a1,1,0,0,0-1-1H92.55V77.9a1,1,0,0,0-1-1H89.12V74.55A2,2,0,0,0,88.54,73.14Zm2,5.77v2.35a1,1,0,0,0,1,1h4.23V83.6H48.38V82.27h4.23a1,1,0,0,0,1-1V78.91H56a1,1,0,0,0,1-1l0-3.32H87.1V77.9a1,1,0,0,0,1,1Z"/><path class="cls-1" d="M64.93,52A4.08,4.08,0,0,0,68,58.71a4,4,0,0,0,2.5-.86l11.29-8.78A4.06,4.06,0,0,0,78.1,42L66.36,26.87a4.06,4.06,0,0,0-6-5.34L49.11,30.32a4.07,4.07,0,0,0,4.31,6.86L57.14,42,29.74,62a1.76,1.76,0,0,0-.7,1.17,1.42,1.42,0,0,0,0,.46,1.75,1.75,0,0,0,.35.87L32.91,69a1.57,1.57,0,0,0,.32.31,1.64,1.64,0,0,0,.87.36h.19a1.79,1.79,0,0,0,1.13-.4L61.55,47.63Zm13.31-7.86.05,0h0a2.06,2.06,0,0,1,1-.28,2,2,0,0,1,1.61.79,2,2,0,0,1-.36,2.88L69.29,56.26A2.06,2.06,0,1,1,66.76,53l11.3-8.78A.67.67,0,0,1,78.24,44.12ZM53,35l-.15.12a2.06,2.06,0,0,1-2.53-3.25l11.29-8.78h0a2,2,0,0,1,1.26-.44l.26,0a2,2,0,0,1,1.37.78,2.06,2.06,0,0,1-.16,2.69l-.05.05a1,1,0,0,1-.15.14Zm2,1,7.45-5.79,2.42-1.88L76.34,43l-9.86,7.68Zm3.27,11.66-24,19.86-3.18-4.1L56.32,45.05l2.06-1.5L60.31,46Z"/></svg>